<svg width="462" height="96" viewBox="0 0 462 96" fill="none" xmlns="http://www.w3.org/2000/svg">
<path d="M50.935 12.2916C44.4385 12.2916 39.1658 17.5562 39.1658 24.0609C39.1658 30.5656 44.4303 35.8301 50.935 35.8301C57.4397 35.8301 62.7043 30.5574 62.7043 24.0609C62.7043 17.5562 57.4315 12.2916 50.935 12.2916ZM50.935 12.2916C47.732 17.975 49.7525 25.1778 55.4523 28.3645C61.1439 31.5511 68.3467 29.4979 71.5087 23.7898C69.3241 27.4611 69.2666 32.0193 71.361 35.748C73.4553 39.4767 77.3893 41.7928 81.6601 41.8256M50.935 12.2916C48.545 15.7904 44.6768 17.9996 40.4471 18.2871M50.935 12.2916C52.783 15.9218 52.783 20.2172 50.935 23.8392M50.935 12.2916C53.21 15.7904 57.062 17.9504 61.2342 18.0654C63.0247 21.8269 66.959 24.0773 71.1066 23.7159C73.0695 27.5268 77.184 29.7361 81.4465 29.2597C80.1406 33.358 80.2148 37.7684 81.652 41.8174M50.935 83.252C57.4397 83.252 62.7043 77.9793 62.7043 71.4828C62.7043 64.9781 57.4397 59.7135 50.935 59.7135C44.4303 59.7135 39.1658 64.9781 39.1658 71.4828C39.1658 77.9875 44.4303 83.252 50.935 83.252ZM50.935 83.252C54.0395 77.585 52.0356 70.4808 46.4343 67.2695C40.8331 64.0582 33.6877 65.9144 30.3615 71.4499M50.935 83.252C53.0868 79.8436 56.8321 77.7904 60.8564 77.8068C63.2054 74.1274 67.1479 71.7702 71.5008 71.4417M50.935 23.8392C44.4303 23.8392 39.1658 29.1037 39.1658 35.6084C39.1658 42.1131 44.4303 47.3776 50.935 47.3776C57.4397 47.3776 62.7043 42.1049 62.7043 35.6084C62.7043 29.1037 57.4397 23.8392 50.935 23.8392ZM40.4471 18.2871C33.9424 18.2871 28.6778 23.5516 28.6778 30.0563C28.6778 36.561 33.9506 41.8256 40.4471 41.8256C46.9518 41.8256 52.2163 36.561 52.2163 30.0563C52.2163 23.5516 46.9518 18.2871 40.4471 18.2871ZM40.4471 18.2871C42.8042 21.6873 46.6806 23.7159 50.82 23.7159M40.4471 18.2871C38.3199 21.8187 34.4927 23.9788 30.3698 23.9788C28.2262 27.6335 24.3086 29.8757 20.0707 29.8593M40.4471 18.2871C42.7221 21.638 42.722 26.032 40.447 29.3911M61.1931 18.2871C54.6884 18.2871 49.4239 23.5516 49.4239 30.0563C49.4239 36.561 54.6966 41.8256 61.1931 41.8256C67.6978 41.8256 72.9624 36.561 72.9624 30.0563C72.9624 23.5516 67.6978 18.2871 61.1931 18.2871ZM61.1931 18.2871C58.836 21.6873 54.9594 23.7159 50.82 23.7159M61.2343 77.815C54.7378 77.815 49.4651 72.5505 49.4651 66.0458C49.4651 59.5411 54.7296 54.2766 61.2343 54.2766C67.739 54.2766 73.0036 59.5411 73.0036 66.0458C73.0036 72.5505 67.739 77.815 61.2343 77.815ZM61.2343 77.815C57.7766 72.337 59.444 65.0849 64.955 61.6765C70.4577 58.2599 77.6933 59.9928 81.0607 65.5284M71.5087 71.4499C65.0122 71.4499 59.7394 66.1772 59.7394 59.6807C59.7394 53.1842 65.004 47.9115 71.5087 47.9115C78.0134 47.9115 83.2779 53.176 83.2779 59.6807C83.2779 66.1854 78.0134 71.4499 71.5087 71.4499ZM71.5087 71.4499C68.1988 65.8815 61.0289 64.0007 55.4112 67.2284C49.7935 70.4561 47.7978 77.5932 50.9434 83.2602M71.5087 71.4499C69.3158 67.828 69.2996 63.2944 71.4432 59.6478C73.595 56.0013 77.5698 53.833 81.7995 53.9891M50.82 23.7159C48.8899 27.5842 44.9396 30.0399 40.6196 30.0564C36.2913 30.0728 32.3327 27.6417 30.3698 23.7898C32.3819 27.4857 32.3489 31.9536 30.2875 35.6166C28.226 39.2796 24.4234 41.6285 20.2183 41.8256M40.6115 30.0564C38.3201 33.5223 34.4435 35.6084 30.2878 35.6084C26.132 35.6084 22.2554 33.5223 19.964 30.0564M19.964 30.0564C24.2348 29.9989 28.2016 32.2493 30.3452 35.9369C32.4971 39.6245 32.4971 44.1828 30.3452 47.8704C28.1934 51.558 24.2266 53.8002 19.964 53.7509M19.964 30.0564C21.7462 33.7605 21.8363 38.0477 20.2183 41.8256M20.2183 41.8256C26.7066 41.8421 31.9386 47.1394 31.8646 53.6277C31.7907 60.1078 26.4523 65.2984 19.964 65.1752M81.7997 29.8592C78.5473 35.4194 71.4349 37.3495 65.809 34.1957C60.1913 31.0419 58.1298 23.9623 61.1851 18.2871M81.7995 29.2351C75.1962 29.5554 70.0138 35.0006 70.0138 41.6121C70.0138 48.2235 75.1962 53.6687 81.7995 53.9891M81.7995 53.9891C80.1815 57.7013 80.0503 61.89 81.4383 65.6926C77.3893 65.709 73.6606 67.9019 71.6895 71.4417M81.6601 41.8256C75.3032 41.9324 70.1618 47.0409 69.9976 53.3977C69.8415 59.7546 74.7201 65.1095 81.0687 65.5366M81.6601 41.8256C80.0996 45.7432 80.1488 50.1125 81.8079 53.9891M19.964 65.1752C23.5859 59.7053 30.8709 58.0709 36.4804 61.4629C42.0898 64.8549 44.0282 72.0741 40.8662 77.815M19.964 65.1752C24.1362 65.6187 27.8731 67.943 30.1234 71.4828C34.4928 71.8195 38.4516 74.1602 40.8662 77.815M19.964 65.1752C21.7052 61.5779 21.7873 57.4057 20.2104 53.7427C21.7216 49.9154 21.7213 45.6529 20.2101 41.8256M19.964 53.7427C24.2266 53.6441 28.2099 55.8616 30.3699 59.5329C32.5299 63.2123 32.5299 67.7623 30.3699 71.4417M61.1687 77.815C59.2387 73.9056 55.3129 71.4417 51.0175 71.4417C46.7221 71.4417 42.7962 73.9056 40.8662 77.815M40.8662 77.815C44.8988 77.9054 48.6439 79.9258 50.9436 83.252M87.9922 48.0347C87.9922 68.4193 71.4677 84.9521 51.0748 84.9521C30.6819 84.9521 14.1655 68.4193 14.1655 48.0347C14.1655 27.65 30.6901 11.1172 51.083 11.1172C71.4759 11.1172 88.0005 27.6418 88.0005 48.0347H87.9922ZM73.6028 25.0629C76.2063 35.2634 66.4657 46.5563 51.8465 50.2768C37.2274 54.0055 23.2735 48.7492 20.6782 38.5486C18.0746 28.3563 27.8153 17.0716 42.4344 13.3429C57.0536 9.61419 71.0075 14.8623 73.6028 25.0629ZM46.8368 15.9711C47.5514 17.7615 44.143 20.8003 39.2316 22.755C34.3202 24.7097 29.7538 24.8411 29.0393 23.0425C28.3247 21.252 31.7331 18.2132 36.6445 16.2585C41.5559 14.3038 46.1223 14.1724 46.8368 15.9711ZM62.7043 47.8293C62.7043 54.3258 57.4397 59.5985 50.935 59.5985C44.4303 59.5985 39.1658 54.334 39.1658 47.8293C39.1658 41.3246 44.4303 36.0601 50.935 36.0601C57.4397 36.0601 62.7043 41.3246 62.7043 47.8293ZM71.5087 59.5411C65.0122 59.5411 59.7394 54.2765 59.7394 47.7718C59.7394 41.2671 65.004 36.0026 71.5087 36.0026C78.0134 36.0026 83.2779 41.2671 83.2779 47.7718C83.2779 54.2765 78.0134 59.5411 71.5087 59.5411ZM30.3696 59.5411C23.8732 59.5411 18.6004 54.2765 18.6004 47.7718C18.6004 41.2671 23.8649 36.0026 30.3696 36.0026C36.8743 36.0026 42.1389 41.2671 42.1389 47.7718C42.1389 54.2765 36.8743 59.5411 30.3696 59.5411ZM71.5087 47.3201C65.0122 47.3201 59.7394 42.0556 59.7394 35.5509C59.7394 29.0462 65.004 23.7816 71.5087 23.7816C78.0134 23.7816 83.2779 29.0462 83.2779 35.5509C83.2779 42.0556 78.0134 47.3201 71.5087 47.3201ZM30.3696 47.3201C23.8732 47.3201 18.6004 42.0556 18.6004 35.5509C18.6004 29.0462 23.8649 23.7816 30.3696 23.7816C36.8743 23.7816 42.1389 29.0462 42.1389 35.5509C42.1389 42.0556 36.8743 47.3201 30.3696 47.3201ZM40.554 53.7427C34.0575 53.7427 28.7848 48.4781 28.7848 41.9734C28.7848 35.4687 34.0493 30.2042 40.554 30.2042C47.0587 30.2042 52.3233 35.4687 52.3233 41.9734C52.3233 48.4781 47.0587 53.7427 40.554 53.7427ZM61.2343 53.7427C54.7378 53.7427 49.4651 48.4781 49.4651 41.9734C49.4651 35.4687 54.7296 30.2042 61.2343 30.2042C67.739 30.2042 73.0036 35.4687 73.0036 41.9734C73.0036 48.4781 67.739 53.7427 61.2343 53.7427ZM40.554 65.5284C34.0575 65.5284 28.7848 60.2638 28.7848 53.7591C28.7848 47.2544 34.0493 41.9899 40.554 41.9899C47.0587 41.9899 52.3233 47.2544 52.3233 53.7591C52.3233 60.2638 47.0587 65.5284 40.554 65.5284ZM61.2343 65.5284C54.7378 65.5284 49.4651 60.2638 49.4651 53.7591C49.4651 47.2544 54.7296 41.9899 61.2343 41.9899C67.739 41.9899 73.0036 47.2544 73.0036 53.7591C73.0036 60.2638 67.739 65.5284 61.2343 65.5284ZM40.554 77.815C34.0575 77.815 28.7848 72.5505 28.7848 66.0458C28.7848 59.5411 34.0493 54.2766 40.554 54.2766C47.0587 54.2766 52.3233 59.5411 52.3233 66.0458C52.3233 72.5505 47.0587 77.815 40.554 77.815ZM62.7043 59.73C62.7043 66.2265 57.4397 71.4992 50.935 71.4992C44.4303 71.4992 39.1658 66.2347 39.1658 59.73C39.1658 53.2253 44.4303 47.9608 50.935 47.9608C57.4397 47.9608 62.7043 53.2253 62.7043 59.73ZM30.3696 71.4499C23.8732 71.4499 18.6004 66.1772 18.6004 59.6807C18.6004 53.1842 23.8649 47.9115 30.3696 47.9115C36.8743 47.9115 42.1389 53.176 42.1389 59.6807C42.1389 66.1854 36.8743 71.4499 30.3696 71.4499ZM60.6723 13.5948C79.7162 18.8941 90.8585 38.6281 85.5593 57.6721C80.26 76.7161 60.5259 87.8584 41.4819 82.5591C22.438 77.2599 11.2957 57.5258 16.5949 38.4818C21.8942 19.4378 41.6283 8.29553 60.6723 13.5948Z" stroke="white" stroke-opacity="0.5" stroke-width="0.821301" stroke-miterlimit="10"/>
<path d="M111.634 24.0822H116.876V76.54H111.634V24.0822Z" fill="url(#paint0_linear_1434_26461)"/>
<path d="M124.865 54.644H144.478V58.9946H124.865V54.644Z" fill="url(#paint1_linear_1434_26461)"/>
<path d="M152.324 22.7627H157.352V53.3602L175.29 37.7405H182.636L161.346 56.2487L183.884 76.54H176.823L157.352 59.1016V76.54H152.324V22.7627Z" fill="url(#paint2_linear_1434_26461)"/>
<path d="M187.129 37.7405H192.229V43.4106C193.751 41.1758 195.355 39.5117 197.043 38.418C198.731 37.3006 200.491 36.742 202.321 36.742C203.7 36.742 205.174 37.1818 206.743 38.0614L204.14 42.2695C203.094 41.8178 202.214 41.5919 201.501 41.5919C199.837 41.5919 198.232 42.2814 196.687 43.6603C195.141 45.0154 193.964 47.1313 193.156 50.008C192.538 52.219 192.229 56.6885 192.229 63.4167V76.54H187.129V37.7405Z" fill="url(#paint3_linear_1434_26461)"/>
<path d="M249.644 37.7405V76.54H244.723V69.8714C242.63 72.4152 240.277 74.329 237.662 75.6128C235.07 76.8967 232.229 77.5386 229.138 77.5386C223.647 77.5386 218.951 75.5534 215.052 71.5831C211.177 67.589 209.239 62.7391 209.239 57.0333C209.239 51.4463 211.201 46.6677 215.124 42.6974C219.046 38.7271 223.766 36.742 229.281 36.742C232.467 36.742 235.344 37.4195 237.911 38.7747C240.503 40.1298 242.773 42.1625 244.723 44.8727V37.7405H249.644ZM229.673 41.5562C226.892 41.5562 224.324 42.2457 221.971 43.6246C219.617 44.9797 217.739 46.8936 216.336 49.3661C214.957 51.8386 214.268 54.4538 214.268 57.2116C214.268 59.9456 214.969 62.5608 216.372 65.0571C217.774 67.5534 219.653 69.5029 222.006 70.9055C224.384 72.2845 226.927 72.9739 229.638 72.9739C232.372 72.9739 234.963 72.2845 237.412 70.9055C239.861 69.5266 241.739 67.6604 243.046 65.3067C244.378 62.9531 245.043 60.3022 245.043 57.3542C245.043 52.8609 243.558 49.1046 240.586 46.0852C237.638 43.0659 234 41.5562 229.673 41.5562Z" fill="url(#paint4_linear_1434_26461)"/>
<path d="M280.42 41.9842L277.21 45.3007C274.547 42.7093 271.944 41.4136 269.4 41.4136C267.784 41.4136 266.393 41.9485 265.228 43.0184C264.087 44.0882 263.516 45.3363 263.516 46.7628C263.516 48.0228 263.992 49.2234 264.943 50.3646C265.893 51.5295 267.891 52.8966 270.934 54.4657C274.642 56.3914 277.162 58.2458 278.494 60.0288C279.801 61.8357 280.455 63.8684 280.455 66.1269C280.455 69.3127 279.338 72.011 277.103 74.222C274.868 76.4331 272.075 77.5386 268.723 77.5386C266.488 77.5386 264.348 77.0512 262.304 76.0764C260.283 75.1017 258.607 73.7585 257.275 72.0467L260.414 68.4806C262.957 71.3573 265.656 72.7956 268.509 72.7956C270.506 72.7956 272.206 72.1537 273.608 70.8699C275.011 69.5861 275.712 68.0764 275.712 66.3409C275.712 64.9144 275.249 63.6425 274.321 62.5251C273.394 61.4315 271.302 60.0526 268.045 58.3884C264.55 56.5816 262.173 54.7985 260.913 53.0392C259.653 51.2799 259.023 49.271 259.023 47.0124C259.023 44.0644 260.021 41.6157 262.018 39.6662C264.039 37.7167 266.583 36.742 269.65 36.742C273.216 36.742 276.806 38.4894 280.42 41.9842Z" fill="url(#paint5_linear_1434_26461)"/>
<path d="M289.264 22.7627H294.292V53.3602L312.229 37.7405H319.576L298.286 56.2487L320.824 76.54H313.763L294.292 59.1016V76.54H289.264V22.7627Z" fill="url(#paint6_linear_1434_26461)"/>
<path d="M364.616 37.7405V76.54H359.695V69.8714C357.603 72.4152 355.249 74.329 352.634 75.6128C350.042 76.8967 347.201 77.5386 344.111 77.5386C338.619 77.5386 333.923 75.5534 330.025 71.5831C326.149 67.589 324.212 62.7391 324.212 57.0333C324.212 51.4463 326.173 46.6677 330.096 42.6974C334.019 38.7271 338.738 36.742 344.253 36.742C347.439 36.742 350.316 37.4195 352.883 38.7747C355.475 40.1298 357.745 42.1625 359.695 44.8727V37.7405H364.616ZM344.646 41.5562C341.864 41.5562 339.296 42.2457 336.943 43.6246C334.589 44.9797 332.711 46.8936 331.308 49.3661C329.929 51.8386 329.24 54.4538 329.24 57.2116C329.24 59.9456 329.941 62.5608 331.344 65.0571C332.747 67.5534 334.625 69.5029 336.978 70.9055C339.356 72.2845 341.9 72.9739 344.61 72.9739C347.344 72.9739 349.935 72.2845 352.384 70.9055C354.833 69.5266 356.711 67.6604 358.019 65.3067C359.35 62.9531 360.016 60.3022 360.016 57.3542C360.016 52.8609 358.53 49.1046 355.558 46.0852C352.61 43.0659 348.973 41.5562 344.646 41.5562Z" fill="url(#paint7_linear_1434_26461)"/>
<path d="M381.377 68.6945C382.589 68.6945 383.624 69.1225 384.479 69.9783C385.335 70.8342 385.763 71.8803 385.763 73.1166C385.763 74.329 385.335 75.3751 384.479 76.2547C383.624 77.1106 382.589 77.5386 381.377 77.5386C380.164 77.5386 379.13 77.1106 378.274 76.2547C377.418 75.3751 376.991 74.329 376.991 73.1166C376.991 71.8803 377.418 70.8342 378.274 69.9783C379.13 69.1225 380.164 68.6945 381.377 68.6945Z" fill="url(#paint8_linear_1434_26461)"/>
<path d="M394.251 37.7405H399.35V43.4106C400.872 41.1758 402.477 39.5117 404.164 38.418C405.852 37.3006 407.612 36.742 409.442 36.742C410.821 36.742 412.295 37.1818 413.864 38.0614L411.261 42.2695C410.215 41.8178 409.335 41.5919 408.622 41.5919C406.958 41.5919 405.353 42.2814 403.808 43.6603C402.263 45.0154 401.086 47.1313 400.277 50.008C399.659 52.219 399.35 56.6885 399.35 63.4167V76.54H394.251V37.7405Z" fill="url(#paint9_linear_1434_26461)"/>
<path d="M417.466 37.7405H422.494V55.8564C422.494 60.2785 422.732 63.3216 423.208 64.9858C423.921 67.3632 425.276 69.2413 427.273 70.6203C429.294 71.9992 431.695 72.6886 434.477 72.6886C437.258 72.6886 439.612 72.0229 441.538 70.6916C443.487 69.3364 444.83 67.5653 445.567 65.378C446.067 63.8803 446.316 60.7064 446.316 55.8564V37.7405H451.416V56.7836C451.416 62.1328 450.786 66.1626 449.526 68.8728C448.289 71.5831 446.411 73.7109 443.891 75.2562C441.395 76.7778 438.257 77.5386 434.477 77.5386C430.697 77.5386 427.535 76.7778 424.991 75.2562C422.471 73.7109 420.581 71.5712 419.321 68.8372C418.084 66.0794 417.466 61.9427 417.466 56.427V37.7405Z" fill="url(#paint10_linear_1434_26461)"/>
<defs>
<linearGradient id="paint0_linear_1434_26461" x1="281.593" y1="80.7341" x2="281.593" y2="37.0397" gradientUnits="userSpaceOnUse">
<stop stop-color="#4A617D"/>
<stop offset="0.69" stop-color="#6C83A1"/>
<stop offset="1" stop-color="#7E95B4"/>
</linearGradient>
<linearGradient id="paint1_linear_1434_26461" x1="281.593" y1="80.7341" x2="281.593" y2="37.0397" gradientUnits="userSpaceOnUse">
<stop stop-color="#4A617D"/>
<stop offset="0.69" stop-color="#6C83A1"/>
<stop offset="1" stop-color="#7E95B4"/>
</linearGradient>
<linearGradient id="paint2_linear_1434_26461" x1="281.593" y1="80.7341" x2="281.593" y2="37.0397" gradientUnits="userSpaceOnUse">
<stop stop-color="#4A617D"/>
<stop offset="0.69" stop-color="#6C83A1"/>
<stop offset="1" stop-color="#7E95B4"/>
</linearGradient>
<linearGradient id="paint3_linear_1434_26461" x1="281.593" y1="80.7341" x2="281.593" y2="37.0397" gradientUnits="userSpaceOnUse">
<stop stop-color="#4A617D"/>
<stop offset="0.69" stop-color="#6C83A1"/>
<stop offset="1" stop-color="#7E95B4"/>
</linearGradient>
<linearGradient id="paint4_linear_1434_26461" x1="281.593" y1="80.7341" x2="281.593" y2="37.0397" gradientUnits="userSpaceOnUse">
<stop stop-color="#4A617D"/>
<stop offset="0.69" stop-color="#6C83A1"/>
<stop offset="1" stop-color="#7E95B4"/>
</linearGradient>
<linearGradient id="paint5_linear_1434_26461" x1="281.593" y1="80.7341" x2="281.593" y2="37.0397" gradientUnits="userSpaceOnUse">
<stop stop-color="#4A617D"/>
<stop offset="0.69" stop-color="#6C83A1"/>
<stop offset="1" stop-color="#7E95B4"/>
</linearGradient>
<linearGradient id="paint6_linear_1434_26461" x1="281.593" y1="80.7341" x2="281.593" y2="37.0397" gradientUnits="userSpaceOnUse">
<stop stop-color="#4A617D"/>
<stop offset="0.69" stop-color="#6C83A1"/>
<stop offset="1" stop-color="#7E95B4"/>
</linearGradient>
<linearGradient id="paint7_linear_1434_26461" x1="281.593" y1="80.7341" x2="281.593" y2="37.0397" gradientUnits="userSpaceOnUse">
<stop stop-color="#4A617D"/>
<stop offset="0.69" stop-color="#6C83A1"/>
<stop offset="1" stop-color="#7E95B4"/>
</linearGradient>
<linearGradient id="paint8_linear_1434_26461" x1="281.593" y1="80.7341" x2="281.593" y2="37.0397" gradientUnits="userSpaceOnUse">
<stop stop-color="#4A617D"/>
<stop offset="0.69" stop-color="#6C83A1"/>
<stop offset="1" stop-color="#7E95B4"/>
</linearGradient>
<linearGradient id="paint9_linear_1434_26461" x1="281.593" y1="80.7341" x2="281.593" y2="37.0397" gradientUnits="userSpaceOnUse">
<stop stop-color="#4A617D"/>
<stop offset="0.69" stop-color="#6C83A1"/>
<stop offset="1" stop-color="#7E95B4"/>
</linearGradient>
<linearGradient id="paint10_linear_1434_26461" x1="281.593" y1="80.7341" x2="281.593" y2="37.0397" gradientUnits="userSpaceOnUse">
<stop stop-color="#4A617D"/>
<stop offset="0.69" stop-color="#6C83A1"/>
<stop offset="1" stop-color="#7E95B4"/>
</linearGradient>
</defs>
</svg>
